# xmcd
# Track frame offsets:
# 150
# 3358
# 22790
# 40224
# 60144
# 76532
# 91258
# 113167
# 130439
# 146809
# 163837
# 182999
# 199932
# 215940
#
# Disc length: 3107 seconds
# Revision: 0
# Processed by: cddbd v1.5.2PL0 Copyright (c) Steve Scherf et al.
# Submitted via: VisiTrax 2.11.3.279 - For more info visit www.synapsa.com
#
DISCID=ba0c210e
DTITLE=Erin Enderlin - Whiskeytown Crier
DYEAR=2017
DGENRE=
TTITLE0=Intro
TTITLE1=Caroline
TTITLE2=Baby Sister
TTITLE3=Ain't It Just Like A Cowboy
TTITLE4=The Blues Are Alive and Well
TTITLE5=Home Sweet Home To Me
TTITLE6=Till It's Gone
TTITLE7=The Coldest In Town
TTITLE8=Whole Nother Bottle Of Wine
TTITLE9=Broken
TTITLE10=Hickory Wind
TTITLE11=Jesse Joe's Cigarettes
TTITLE12=His Memory Walks on Water
TTITLE13='Til I Can Make It On My Own
EXTD=
EXTT0=
EXTT1=
EXTT2=
EXTT3=
EXTT4=
EXTT5=
EXTT6=
EXTT7=
EXTT8=
EXTT9=
EXTT10=
EXTT11=
EXTT12=
EXTT13=
PLAYORDER=
